<svg viewBox="0 0 512 512" xmlns="http://www.w3.org/2000/svg"><path d="m448 192v-114.75c0-8.49-3.37-16.62-9.37-22.63l-45.26-45.25c-6-6-14.14-9.37-22.63-9.37h-274.74c-17.67 0-32 14.33-32 32v160c-35.35 0-64 28.65-64 64v112c0 8.84 7.16 16 16 16h48v96c0 17.67 14.33 32 32 32h320c17.67 0 32-14.33 32-32v-96h48c8.84 0 16-7.16 16-16v-112c0-35.35-28.65-64-64-64zm-64 256h-256v-96h256zm0-224h-256v-160h192v48c0 8.84 7.16 16 16 16h48zm48 72c-13.25 0-24-10.75-24-24 0-13.26 10.75-24 24-24s24 10.74 24 24c0 13.25-10.75 24-24 24z"/></svg>